# xmcd
#
# Track frame offsets: 
#        150
#        12085
#        23603
#        38592
#        51152
#        58700
#        79195
#        90489
#        100911
#        111952
#        124647
#        135824
#
# Disc length: 1996 seconds
#
# Revision: 0
# Processed by: cddbd v1.5.2PL0 Copyright (c) Steve Scherf et al.
# Submitted via: ExactAudioCopyFreeDBPlugin 1.0
#
DISCID=8607ca0c
DTITLE=Ray Charles - Song Book Collection CD 2
DYEAR=2006
DGENRE=Blues
TTITLE0=Hit The Road Jack
TTITLE1=Let The Good Times Roll
TTITLE2=Let's Go Fet Stoned
TTITLE3=Rockin' Chair Blues
TTITLE4=Ray's Blues
TTITLE5=A Girl I Used To Know
TTITLE6=She's On The Ball
TTITLE7=Ain't That Fine
TTITLE8=A Sentimental Blues
TTITLE9=Can Anyone Ask For More
TTITLE10=I'll Do Anything But Work
TTITLE11=Late In The Evening
EXTD=
EXTT0=
EXTT1=
EXTT2=
EXTT3=
EXTT4=
EXTT5=
EXTT6=
EXTT7=
EXTT8=
EXTT9=
EXTT10=
EXTT11=
PLAYORDER=
